<mxfile host="app.diagrams.net" modified="2023-08-09T04:07:27.744Z" agent="Mozilla/5.0 (Windows NT 10.0; Win64; x64) AppleWebKit/537.36 (KHTML, like Gecko) Chrome/115.0.0.0 Safari/537.36" etag="Jsw954Kp0SMiRB6bofP8" version="21.6.6" type="github">
  <diagram name="Page-1" id="9f46799a-70d6-7492-0946-bef42562c5a5">
    <mxGraphModel dx="2609" dy="789" grid="1" gridSize="10" guides="1" tooltips="1" connect="1" arrows="1" fold="1" page="1" pageScale="1" pageWidth="1100" pageHeight="850" background="none" math="0" shadow="0">
      <root>
        <mxCell id="0" />
        <mxCell id="1" parent="0" />
        <mxCell id="qfoYTjSmPovr-xyfiKrV-1" value="" style="whiteSpace=wrap;html=1;aspect=fixed;" vertex="1" parent="1">
          <mxGeometry x="-1080" y="10" width="500" height="500" as="geometry" />
        </mxCell>
        <mxCell id="qfoYTjSmPovr-xyfiKrV-2" value="Travel planner" style="rounded=1;whiteSpace=wrap;html=1;" vertex="1" parent="1">
          <mxGeometry x="-1052" y="70" width="120" height="60" as="geometry" />
        </mxCell>
        <mxCell id="qfoYTjSmPovr-xyfiKrV-3" value="Sign in" style="rounded=0;whiteSpace=wrap;html=1;" vertex="1" parent="1">
          <mxGeometry x="-679" y="75" width="80" height="50" as="geometry" />
        </mxCell>
        <mxCell id="qfoYTjSmPovr-xyfiKrV-8" value="搜索航班" style="rounded=0;whiteSpace=wrap;html=1;" vertex="1" parent="1">
          <mxGeometry x="-1042" y="190" width="120" height="30" as="geometry" />
        </mxCell>
        <mxCell id="qfoYTjSmPovr-xyfiKrV-10" value="search" style="rounded=0;whiteSpace=wrap;html=1;" vertex="1" parent="1">
          <mxGeometry x="-912" y="190" width="120" height="30" as="geometry" />
        </mxCell>
        <mxCell id="qfoYTjSmPovr-xyfiKrV-11" value="搜索酒店" style="rounded=0;whiteSpace=wrap;html=1;" vertex="1" parent="1">
          <mxGeometry x="-1042" y="230" width="120" height="30" as="geometry" />
        </mxCell>
        <mxCell id="qfoYTjSmPovr-xyfiKrV-12" value="search" style="rounded=0;whiteSpace=wrap;html=1;" vertex="1" parent="1">
          <mxGeometry x="-912" y="230" width="120" height="30" as="geometry" />
        </mxCell>
        <mxCell id="qfoYTjSmPovr-xyfiKrV-13" value="My trips" style="rounded=0;whiteSpace=wrap;html=1;" vertex="1" parent="1">
          <mxGeometry x="-779" y="75" width="80" height="50" as="geometry" />
        </mxCell>
        <mxCell id="qfoYTjSmPovr-xyfiKrV-14" value="Trip Boards" style="rounded=0;whiteSpace=wrap;html=1;" vertex="1" parent="1">
          <mxGeometry x="-879" y="75" width="80" height="50" as="geometry" />
        </mxCell>
        <mxCell id="qfoYTjSmPovr-xyfiKrV-15" value="" style="whiteSpace=wrap;html=1;aspect=fixed;" vertex="1" parent="1">
          <mxGeometry x="-540" y="10" width="500" height="500" as="geometry" />
        </mxCell>
        <mxCell id="qfoYTjSmPovr-xyfiKrV-16" value="Trip Boards" style="rounded=1;whiteSpace=wrap;html=1;" vertex="1" parent="1">
          <mxGeometry x="-522" y="103" width="120" height="60" as="geometry" />
        </mxCell>
        <mxCell id="qfoYTjSmPovr-xyfiKrV-17" value="Uesr name" style="rounded=0;whiteSpace=wrap;html=1;" vertex="1" parent="1">
          <mxGeometry x="-162" y="113" width="80" height="50" as="geometry" />
        </mxCell>
        <mxCell id="qfoYTjSmPovr-xyfiKrV-22" value="My trips" style="rounded=0;whiteSpace=wrap;html=1;" vertex="1" parent="1">
          <mxGeometry x="-262" y="113" width="80" height="50" as="geometry" />
        </mxCell>
        <mxCell id="qfoYTjSmPovr-xyfiKrV-23" value="+&amp;nbsp; Create a trip" style="rounded=0;whiteSpace=wrap;html=1;" vertex="1" parent="1">
          <mxGeometry x="-282" y="193" width="92" height="50" as="geometry" />
        </mxCell>
        <mxCell id="qfoYTjSmPovr-xyfiKrV-24" value="Trip Boards" style="rounded=0;whiteSpace=wrap;html=1;" vertex="1" parent="1">
          <mxGeometry x="-362" y="113" width="80" height="50" as="geometry" />
        </mxCell>
        <mxCell id="qfoYTjSmPovr-xyfiKrV-26" value="Start exploring" style="rounded=0;whiteSpace=wrap;html=1;" vertex="1" parent="1">
          <mxGeometry x="-389" y="320" width="198" height="50" as="geometry" />
        </mxCell>
        <mxCell id="qfoYTjSmPovr-xyfiKrV-27" value="User, you have no upcoming trips. where ary you going next?" style="text;html=1;strokeColor=none;fillColor=none;align=center;verticalAlign=middle;whiteSpace=wrap;rounded=0;" vertex="1" parent="1">
          <mxGeometry x="-500" y="270" width="400" height="30" as="geometry" />
        </mxCell>
        <mxCell id="qfoYTjSmPovr-xyfiKrV-28" value="" style="whiteSpace=wrap;html=1;aspect=fixed;" vertex="1" parent="1">
          <mxGeometry x="26" y="10" width="500" height="500" as="geometry" />
        </mxCell>
        <mxCell id="qfoYTjSmPovr-xyfiKrV-30" value="Uesr name" style="rounded=0;whiteSpace=wrap;html=1;" vertex="1" parent="1">
          <mxGeometry x="404" y="89" width="80" height="50" as="geometry" />
        </mxCell>
        <mxCell id="qfoYTjSmPovr-xyfiKrV-31" value="My trips" style="rounded=0;whiteSpace=wrap;html=1;" vertex="1" parent="1">
          <mxGeometry x="304" y="89" width="80" height="50" as="geometry" />
        </mxCell>
        <mxCell id="qfoYTjSmPovr-xyfiKrV-33" value="Trip Boards" style="rounded=0;whiteSpace=wrap;html=1;" vertex="1" parent="1">
          <mxGeometry x="204" y="89" width="80" height="50" as="geometry" />
        </mxCell>
        <mxCell id="qfoYTjSmPovr-xyfiKrV-34" value="Going to..." style="rounded=0;whiteSpace=wrap;html=1;" vertex="1" parent="1">
          <mxGeometry x="59" y="193" width="93" height="50" as="geometry" />
        </mxCell>
        <mxCell id="qfoYTjSmPovr-xyfiKrV-39" value="" style="shape=flexArrow;endArrow=classic;html=1;rounded=0;" edge="1" parent="1" target="qfoYTjSmPovr-xyfiKrV-28">
          <mxGeometry width="50" height="50" relative="1" as="geometry">
            <mxPoint x="-190" y="343.33" as="sourcePoint" />
            <mxPoint x="-59.999999999999545" y="299.9966666666664" as="targetPoint" />
          </mxGeometry>
        </mxCell>
        <mxCell id="qfoYTjSmPovr-xyfiKrV-40" value="&lt;font style=&quot;font-size: 14px;&quot;&gt;Find your place for together&amp;nbsp;&lt;/font&gt;" style="text;html=1;strokeColor=none;fillColor=none;align=center;verticalAlign=middle;whiteSpace=wrap;rounded=0;" vertex="1" parent="1">
          <mxGeometry x="30" y="148" width="236" height="30" as="geometry" />
        </mxCell>
        <mxCell id="qfoYTjSmPovr-xyfiKrV-41" value="Dates" style="rounded=0;whiteSpace=wrap;html=1;" vertex="1" parent="1">
          <mxGeometry x="173" y="193" width="80" height="50" as="geometry" />
        </mxCell>
        <mxCell id="qfoYTjSmPovr-xyfiKrV-42" value="Travelers&lt;br&gt;1 traveler" style="rounded=0;whiteSpace=wrap;html=1;" vertex="1" parent="1">
          <mxGeometry x="286" y="193" width="100" height="50" as="geometry" />
        </mxCell>
        <mxCell id="qfoYTjSmPovr-xyfiKrV-43" value="Search" style="rounded=0;whiteSpace=wrap;html=1;" vertex="1" parent="1">
          <mxGeometry x="413" y="193" width="69" height="50" as="geometry" />
        </mxCell>
        <mxCell id="qfoYTjSmPovr-xyfiKrV-44" value="&lt;h2 class=&quot;uitk-heading uitk-heading-3&quot; style=&quot;box-sizing: border-box; margin: 0px; padding: 0px 0.75rem; font-weight: 500; line-height: 2rem; color: rgb(0, 0, 0); font-family: &amp;quot;FreightSansLF Pro&amp;quot;, &amp;quot;Noto Sans JP&amp;quot;, &amp;quot;Noto Sans KR&amp;quot;, &amp;quot;Helvetica Neue&amp;quot;, Helvetica, Arial, &amp;quot;Lucida Grande&amp;quot;, &amp;quot;Segoe UI&amp;quot;, Tahoma, -apple-system, Roboto, sans-serif; font-style: normal; font-variant-ligatures: normal; font-variant-caps: normal; letter-spacing: normal; orphans: 2; text-align: start; text-indent: 0px; text-transform: none; widows: 2; word-spacing: 0px; -webkit-text-stroke-width: 0px; background-color: rgb(255, 255, 255); text-decoration-thickness: initial; text-decoration-style: initial; text-decoration-color: initial;&quot;&gt;&lt;font style=&quot;font-size: 14px;&quot;&gt;Get inspired for a family trip&lt;/font&gt;&lt;/h2&gt;" style="text;whiteSpace=wrap;html=1;" vertex="1" parent="1">
          <mxGeometry x="59" y="270" width="201" height="60" as="geometry" />
        </mxCell>
        <mxCell id="qfoYTjSmPovr-xyfiKrV-45" value="On the beach" style="rounded=0;whiteSpace=wrap;html=1;" vertex="1" parent="1">
          <mxGeometry x="64.5" y="330" width="190" height="110" as="geometry" />
        </mxCell>
        <mxCell id="qfoYTjSmPovr-xyfiKrV-46" value="Pets welcome" style="rounded=0;whiteSpace=wrap;html=1;" vertex="1" parent="1">
          <mxGeometry x="290" y="330" width="180" height="110" as="geometry" />
        </mxCell>
        <mxCell id="qfoYTjSmPovr-xyfiKrV-47" value="" style="whiteSpace=wrap;html=1;aspect=fixed;" vertex="1" parent="1">
          <mxGeometry x="26" y="590" width="500" height="500" as="geometry" />
        </mxCell>
        <mxCell id="qfoYTjSmPovr-xyfiKrV-49" value="Uesr name" style="rounded=0;whiteSpace=wrap;html=1;" vertex="1" parent="1">
          <mxGeometry x="404" y="658" width="80" height="50" as="geometry" />
        </mxCell>
        <mxCell id="qfoYTjSmPovr-xyfiKrV-50" value="My trips" style="rounded=0;whiteSpace=wrap;html=1;" vertex="1" parent="1">
          <mxGeometry x="304" y="658" width="80" height="50" as="geometry" />
        </mxCell>
        <mxCell id="qfoYTjSmPovr-xyfiKrV-51" value="Trip Boards" style="rounded=0;whiteSpace=wrap;html=1;" vertex="1" parent="1">
          <mxGeometry x="204" y="658" width="80" height="50" as="geometry" />
        </mxCell>
        <mxCell id="qfoYTjSmPovr-xyfiKrV-52" value="Going to..." style="rounded=0;whiteSpace=wrap;html=1;" vertex="1" parent="1">
          <mxGeometry x="52" y="743" width="93" height="50" as="geometry" />
        </mxCell>
        <mxCell id="qfoYTjSmPovr-xyfiKrV-54" value="Dates" style="rounded=0;whiteSpace=wrap;html=1;" vertex="1" parent="1">
          <mxGeometry x="166" y="743" width="80" height="50" as="geometry" />
        </mxCell>
        <mxCell id="qfoYTjSmPovr-xyfiKrV-55" value="Travelers&lt;br&gt;1 traveler" style="rounded=0;whiteSpace=wrap;html=1;" vertex="1" parent="1">
          <mxGeometry x="279" y="743" width="100" height="50" as="geometry" />
        </mxCell>
        <mxCell id="qfoYTjSmPovr-xyfiKrV-56" value="Search" style="rounded=0;whiteSpace=wrap;html=1;" vertex="1" parent="1">
          <mxGeometry x="406" y="743" width="69" height="50" as="geometry" />
        </mxCell>
        <mxCell id="qfoYTjSmPovr-xyfiKrV-58" value="list of recomondent" style="rounded=0;whiteSpace=wrap;html=1;" vertex="1" parent="1">
          <mxGeometry x="64.5" y="840" width="190" height="210" as="geometry" />
        </mxCell>
        <mxCell id="qfoYTjSmPovr-xyfiKrV-59" value="map" style="rounded=0;whiteSpace=wrap;html=1;" vertex="1" parent="1">
          <mxGeometry x="290" y="840" width="180" height="210" as="geometry" />
        </mxCell>
        <mxCell id="qfoYTjSmPovr-xyfiKrV-62" value="" style="shape=flexArrow;endArrow=classic;html=1;rounded=0;" edge="1" parent="1" target="qfoYTjSmPovr-xyfiKrV-45">
          <mxGeometry width="50" height="50" relative="1" as="geometry">
            <mxPoint x="160" y="590" as="sourcePoint" />
            <mxPoint x="210" y="540" as="targetPoint" />
          </mxGeometry>
        </mxCell>
        <mxCell id="qfoYTjSmPovr-xyfiKrV-63" value="" style="shape=flexArrow;endArrow=classic;html=1;rounded=0;" edge="1" parent="1" target="qfoYTjSmPovr-xyfiKrV-46">
          <mxGeometry width="50" height="50" relative="1" as="geometry">
            <mxPoint x="340" y="590" as="sourcePoint" />
            <mxPoint x="390" y="540" as="targetPoint" />
          </mxGeometry>
        </mxCell>
        <mxCell id="qfoYTjSmPovr-xyfiKrV-64" value="Hoem page" style="shape=process;whiteSpace=wrap;html=1;backgroundOutline=1;" vertex="1" parent="1">
          <mxGeometry x="-890" y="10" width="120" height="60" as="geometry" />
        </mxCell>
        <mxCell id="qfoYTjSmPovr-xyfiKrV-65" value="Trip Boards" style="shape=process;whiteSpace=wrap;html=1;backgroundOutline=1;" vertex="1" parent="1">
          <mxGeometry x="-350" y="20" width="120" height="60" as="geometry" />
        </mxCell>
        <mxCell id="qfoYTjSmPovr-xyfiKrV-66" value="Trip Boards" style="shape=process;whiteSpace=wrap;html=1;backgroundOutline=1;" vertex="1" parent="1">
          <mxGeometry x="220" y="15" width="120" height="60" as="geometry" />
        </mxCell>
        <mxCell id="qfoYTjSmPovr-xyfiKrV-67" value="travel&amp;nbsp; recomondent" style="shape=process;whiteSpace=wrap;html=1;backgroundOutline=1;" vertex="1" parent="1">
          <mxGeometry x="210" y="590" width="120" height="60" as="geometry" />
        </mxCell>
        <mxCell id="qfoYTjSmPovr-xyfiKrV-68" value="" style="whiteSpace=wrap;html=1;aspect=fixed;" vertex="1" parent="1">
          <mxGeometry x="20" y="1150" width="500" height="500" as="geometry" />
        </mxCell>
        <mxCell id="qfoYTjSmPovr-xyfiKrV-69" value="Uesr name" style="rounded=0;whiteSpace=wrap;html=1;" vertex="1" parent="1">
          <mxGeometry x="398" y="1218" width="80" height="50" as="geometry" />
        </mxCell>
        <mxCell id="qfoYTjSmPovr-xyfiKrV-70" value="My trips" style="rounded=0;whiteSpace=wrap;html=1;" vertex="1" parent="1">
          <mxGeometry x="298" y="1218" width="80" height="50" as="geometry" />
        </mxCell>
        <mxCell id="qfoYTjSmPovr-xyfiKrV-71" value="Trip Boards" style="rounded=0;whiteSpace=wrap;html=1;" vertex="1" parent="1">
          <mxGeometry x="198" y="1218" width="80" height="50" as="geometry" />
        </mxCell>
        <mxCell id="qfoYTjSmPovr-xyfiKrV-78" value="order detail" style="shape=process;whiteSpace=wrap;html=1;backgroundOutline=1;" vertex="1" parent="1">
          <mxGeometry x="204" y="1150" width="120" height="60" as="geometry" />
        </mxCell>
        <mxCell id="qfoYTjSmPovr-xyfiKrV-79" value="" style="shape=flexArrow;endArrow=classic;html=1;rounded=0;entryX=0.291;entryY=-0.004;entryDx=0;entryDy=0;entryPerimeter=0;" edge="1" parent="1" target="qfoYTjSmPovr-xyfiKrV-68">
          <mxGeometry width="50" height="50" relative="1" as="geometry">
            <mxPoint x="166" y="1050" as="sourcePoint" />
            <mxPoint x="166" y="1130" as="targetPoint" />
          </mxGeometry>
        </mxCell>
      </root>
    </mxGraphModel>
  </diagram>
</mxfile>
